<?xml version="1.0" encoding="UTF-8" standalone="no"?>
<!DOCTYPE svg PUBLIC "-//W3C//DTD SVG 1.1//EN"
 "http://www.w3.org/Graphics/SVG/1.1/DTD/svg11.dtd">
<!-- Generated by graphviz version 9.0.0 (20231125.0833)
 -->
<!-- Title: snakemake_dag Pages: 1 -->
<svg width="726pt" height="1034pt"
 viewBox="0.00 0.00 726.00 1034.25" xmlns="http://www.w3.org/2000/svg" xmlns:xlink="http://www.w3.org/1999/xlink">
<g id="graph0" class="graph" transform="scale(1 1) rotate(0) translate(4 1030.25)">
<title>snakemake_dag</title>
<polygon fill="white" stroke="none" points="-4,4 -4,-1030.25 722,-1030.25 722,4 -4,4"/>
<!-- 0 -->
<g id="node1" class="node">
<title>0</title>
<text text-anchor="start" x="342.5" y="-149.15" font-family="sans" font-weight="bold" font-size="18.00">all</text>
<text text-anchor="start" x="188" y="-120.45" font-family="sans" font-size="10.00"> </text>
<text text-anchor="start" x="190.25" y="-120.45" font-family="sans" font-weight="bold" font-size="14.00">↪ input</text>
<text text-anchor="start" x="243.5" y="-120.45" font-family="sans" font-size="10.00"> </text>
<text text-anchor="start" x="188" y="-96.75" font-family="monospace" font-size="10.00">results/dataset/cnv/copy_number_variants_dataset.tsv</text>
<text text-anchor="start" x="188" y="-75.5" font-family="monospace" font-size="10.00">results/samples/cnv/SRS8318899/copy_number_variants.tsv</text>
<text text-anchor="start" x="188" y="-54.25" font-family="monospace" font-size="10.00">results/samples/cnv/SRS8318900/copy_number_variants.tsv</text>
<text text-anchor="start" x="188" y="-33" font-family="monospace" font-size="10.00">results/samples/cnv/SRS8318901/copy_number_variants.tsv</text>
<text text-anchor="start" x="513.5" y="-11.75" font-family="sans" font-size="10.00"> &#160;</text>
<polygon fill="#57add9" stroke="#57add9" points="182,-136.75 182,-136.75 525,-136.75 525,-136.75 182,-136.75"/>
<polygon fill="#57add9" stroke="#57add9" points="182,-25.25 182,-25.25 525,-25.25 525,-25.25 182,-25.25"/>
<polygon fill="none" stroke="#57add9" stroke-width="2" points="182,-1 182,-171.25 524,-171.25 524,-1 182,-1"/>
</g>
<!-- 1 -->
<g id="node2" class="node">
<title>1</title>
<text text-anchor="start" x="304.25" y="-576.15" font-family="sans" font-weight="bold" font-size="18.00">cnv_calling</text>
<text text-anchor="start" x="194" y="-547.45" font-family="sans" font-size="10.00"> </text>
<text text-anchor="start" x="196.25" y="-547.45" font-family="sans" font-weight="bold" font-size="14.00">↪ input</text>
<text text-anchor="start" x="249.5" y="-547.45" font-family="sans" font-size="10.00"> </text>
<text text-anchor="start" x="194" y="-523.75" font-family="monospace" font-size="10.00">&lt;function cnv_calling_input at 0x7f8dd5a8be20&gt;</text>
<text text-anchor="start" x="443.75" y="-499.7" font-family="sans" font-size="10.00"> </text>
<text text-anchor="start" x="446" y="-499.7" font-family="sans" font-weight="bold" font-size="14.00">output →</text>
<text text-anchor="start" x="509.75" y="-499.7" font-family="sans" font-size="10.00"> </text>
<text text-anchor="start" x="194" y="-476" font-family="monospace" font-size="10.00">results/samples/cnv/{sample}/chromosome_depth.tsv</text>
<text text-anchor="start" x="194" y="-454.75" font-family="monospace" font-size="10.00">results/samples/cnv/{sample}/copy_number_variants.tsv</text>
<text text-anchor="start" x="194" y="-433.5" font-family="monospace" font-size="10.00">results/samples/cnv/{sample}/window_depth.tsv</text>
<polygon fill="#57d9ad" stroke="#57d9ad" points="188,-563.75 188,-563.75 519,-563.75 519,-563.75 188,-563.75"/>
<polygon fill="#57d9ad" stroke="#57d9ad" points="188,-516 188,-516 519,-516 519,-516 188,-516"/>
<polygon fill="none" stroke="#57d9ad" stroke-width="2" points="188,-422.75 188,-598.25 518,-598.25 518,-422.75 188,-422.75"/>
</g>
<!-- 1&#45;&gt;0 -->
<g id="edge1" class="edge">
<title>1&#45;&gt;0</title>
<path fill="none" stroke="grey" stroke-width="2" d="M287.19,-421.97C280.99,-410.27 275.67,-398.05 272,-385.75 249.46,-310.15 249.09,-283.74 272,-208.25 274.55,-199.86 277.89,-191.52 281.77,-183.37"/>
<polygon fill="grey" stroke="grey" stroke-width="2" points="284.77,-185.19 286.2,-174.69 278.53,-182.01 284.77,-185.19"/>
</g>
<!-- 5 -->
<g id="node6" class="node">
<title>5</title>
<text text-anchor="start" x="400.12" y="-362.65" font-family="sans" font-weight="bold" font-size="18.00">dataset_cnv</text>
<text text-anchor="start" x="288" y="-333.95" font-family="sans" font-size="10.00"> </text>
<text text-anchor="start" x="290.25" y="-333.95" font-family="sans" font-weight="bold" font-size="14.00">↪ input</text>
<text text-anchor="start" x="343.5" y="-333.95" font-family="sans" font-size="10.00"> </text>
<text text-anchor="start" x="288" y="-310.25" font-family="monospace" font-size="10.00">results/samples/cnv/SRS8318899/copy_number_variants.tsv</text>
<text text-anchor="start" x="288" y="-289" font-family="monospace" font-size="10.00">results/samples/cnv/SRS8318900/copy_number_variants.tsv</text>
<text text-anchor="start" x="288" y="-267.75" font-family="monospace" font-size="10.00">results/samples/cnv/SRS8318901/copy_number_variants.tsv</text>
<text text-anchor="start" x="549.75" y="-243.7" font-family="sans" font-size="10.00"> </text>
<text text-anchor="start" x="552" y="-243.7" font-family="sans" font-weight="bold" font-size="14.00">output →</text>
<text text-anchor="start" x="615.75" y="-243.7" font-family="sans" font-size="10.00"> </text>
<text text-anchor="start" x="288" y="-220" font-family="monospace" font-size="10.00">results/dataset/cnv/copy_number_variants_dataset.tsv</text>
<polygon fill="#d95757" stroke="#d95757" points="282,-350.25 282,-350.25 625,-350.25 625,-350.25 282,-350.25"/>
<polygon fill="#d95757" stroke="#d95757" points="282,-260 282,-260 625,-260 625,-260 282,-260"/>
<polygon fill="none" stroke="#d95757" stroke-width="2" points="282,-209.25 282,-384.75 624,-384.75 624,-209.25 282,-209.25"/>
</g>
<!-- 1&#45;&gt;5 -->
<g id="edge6" class="edge">
<title>1&#45;&gt;5</title>
<path fill="none" stroke="grey" stroke-width="2" d="M394.4,-421.95C398.27,-413.76 402.21,-405.42 406.13,-397.14"/>
<polygon fill="grey" stroke="grey" stroke-width="2" points="409.23,-398.76 410.34,-388.22 402.9,-395.77 409.23,-398.76"/>
</g>
<!-- 2 -->
<g id="node3" class="node">
<title>2</title>
<text text-anchor="start" x="123.62" y="-789.65" font-family="sans" font-weight="bold" font-size="18.00">mosdepth</text>
<text text-anchor="start" x="7" y="-760.95" font-family="sans" font-size="10.00"> </text>
<text text-anchor="start" x="9.25" y="-760.95" font-family="sans" font-weight="bold" font-size="14.00">↪ input</text>
<text text-anchor="start" x="62.5" y="-760.95" font-family="sans" font-size="10.00"> </text>
<text text-anchor="start" x="7" y="-737.25" font-family="monospace" font-size="10.00">data/samples/{sample}.bam</text>
<text text-anchor="start" x="7" y="-716" font-family="monospace" font-size="10.00">data/samples/{sample}.bam.bai</text>
<text text-anchor="start" x="262.75" y="-691.95" font-family="sans" font-size="10.00"> </text>
<text text-anchor="start" x="265" y="-691.95" font-family="sans" font-weight="bold" font-size="14.00">output →</text>
<text text-anchor="start" x="328.75" y="-691.95" font-family="sans" font-size="10.00"> </text>
<text text-anchor="start" x="7" y="-668.25" font-family="monospace" font-size="10.00">results/samples/mosdepth/{sample}/depth.regions.bed.gz</text>
<polygon fill="#57d957" stroke="#57d957" points="1,-777.25 1,-777.25 338,-777.25 338,-777.25 1,-777.25"/>
<polygon fill="#57d957" stroke="#57d957" points="1,-708.25 1,-708.25 338,-708.25 338,-708.25 1,-708.25"/>
<polygon fill="none" stroke="#57d957" stroke-width="2" points="1,-657.5 1,-811.75 337,-811.75 337,-657.5 1,-657.5"/>
</g>
<!-- 2&#45;&gt;1 -->
<g id="edge3" class="edge">
<title>2&#45;&gt;1</title>
<path fill="none" stroke="grey" stroke-width="2" d="M232.84,-656.56C245.56,-641.2 259.08,-624.89 272.28,-608.95"/>
<polygon fill="grey" stroke="grey" stroke-width="2" points="274.83,-611.35 278.52,-601.42 269.44,-606.88 274.83,-611.35"/>
</g>
<!-- 3 -->
<g id="node4" class="node">
<title>3</title>
<text text-anchor="start" x="470.62" y="-810.9" font-family="sans" font-weight="bold" font-size="18.00">repeat_masker</text>
<text text-anchor="start" x="363" y="-782.2" font-family="sans" font-size="10.00"> </text>
<text text-anchor="start" x="365.25" y="-782.2" font-family="sans" font-weight="bold" font-size="14.00">↪ input</text>
<text text-anchor="start" x="418.5" y="-782.2" font-family="sans" font-size="10.00"> </text>
<text text-anchor="start" x="363" y="-758.5" font-family="monospace" font-size="10.00">config/RepBase.fasta</text>
<text text-anchor="start" x="363" y="-737.25" font-family="monospace" font-size="10.00">data/references/{lineage}.fasta</text>
<text text-anchor="start" x="363" y="-716" font-family="monospace" font-size="10.00">results/references/{lineage}/repeats/{lineage}_known.fa</text>
<text text-anchor="start" x="363" y="-694.75" font-family="monospace" font-size="10.00">results/references/{lineage}/repeats/{lineage}_unknown.fa</text>
<text text-anchor="start" x="642.75" y="-670.7" font-family="sans" font-size="10.00"> </text>
<text text-anchor="start" x="645" y="-670.7" font-family="sans" font-weight="bold" font-size="14.00">output →</text>
<text text-anchor="start" x="708.75" y="-670.7" font-family="sans" font-size="10.00"> </text>
<text text-anchor="start" x="363" y="-647" font-family="monospace" font-size="10.00">results/references/{lineage}/repeats/{lineage}_repeats.bed</text>
<polygon fill="#d9ad57" stroke="#d9ad57" points="357,-798.5 357,-798.5 718,-798.5 718,-798.5 357,-798.5"/>
<polygon fill="#d9ad57" stroke="#d9ad57" points="357,-687 357,-687 718,-687 718,-687 357,-687"/>
<polygon fill="none" stroke="#d9ad57" stroke-width="2" points="357,-636.25 357,-833 717,-833 717,-636.25 357,-636.25"/>
</g>
<!-- 3&#45;&gt;1 -->
<g id="edge4" class="edge">
<title>3&#45;&gt;1</title>
<path fill="none" stroke="grey" stroke-width="2" d="M455.76,-635.55C448.48,-626.77 441.12,-617.88 433.85,-609.1"/>
<polygon fill="grey" stroke="grey" stroke-width="2" points="436.69,-607.05 427.62,-601.58 431.3,-611.51 436.69,-607.05"/>
</g>
<!-- 4 -->
<g id="node5" class="node">
<title>4</title>
<text text-anchor="start" x="466.88" y="-1003.15" font-family="sans" font-weight="bold" font-size="18.00">repeat_modeler</text>
<text text-anchor="start" x="366" y="-974.45" font-family="sans" font-size="10.00"> </text>
<text text-anchor="start" x="368.25" y="-974.45" font-family="sans" font-weight="bold" font-size="14.00">↪ input</text>
<text text-anchor="start" x="421.5" y="-974.45" font-family="sans" font-size="10.00"> </text>
<text text-anchor="start" x="366" y="-950.75" font-family="monospace" font-size="10.00">data/references/{lineage}.fasta</text>
<text text-anchor="start" x="639.75" y="-926.7" font-family="sans" font-size="10.00"> </text>
<text text-anchor="start" x="642" y="-926.7" font-family="sans" font-weight="bold" font-size="14.00">output →</text>
<text text-anchor="start" x="705.75" y="-926.7" font-family="sans" font-size="10.00"> </text>
<text text-anchor="start" x="366" y="-903" font-family="monospace" font-size="10.00">results/references/{lineage}/repeats/{lineage}_known.fa</text>
<text text-anchor="start" x="366" y="-881.75" font-family="monospace" font-size="10.00">results/references/{lineage}/repeats/{lineage}_unknown.fa</text>
<polygon fill="#add957" stroke="#add957" points="360,-990.75 360,-990.75 715,-990.75 715,-990.75 360,-990.75"/>
<polygon fill="#add957" stroke="#add957" points="360,-943 360,-943 715,-943 715,-943 360,-943"/>
<polygon fill="none" stroke="#add957" stroke-width="2" points="360,-871 360,-1025.25 714,-1025.25 714,-871 360,-871"/>
</g>
<!-- 4&#45;&gt;3 -->
<g id="edge5" class="edge">
<title>4&#45;&gt;3</title>
<path fill="none" stroke="grey" stroke-width="2" d="M537,-870.17C537,-862.51 537,-854.63 537,-846.72"/>
<polygon fill="grey" stroke="grey" stroke-width="2" points="540.5,-846.86 537,-836.86 533.5,-846.86 540.5,-846.86"/>
</g>
<!-- 5&#45;&gt;0 -->
<g id="edge2" class="edge">
<title>5&#45;&gt;0</title>
<path fill="none" stroke="grey" stroke-width="2" d="M411.03,-208.33C407.14,-200.21 403.18,-191.95 399.26,-183.75"/>
<polygon fill="grey" stroke="grey" stroke-width="2" points="402.53,-182.47 395.05,-174.97 396.22,-185.5 402.53,-182.47"/>
</g>
</g>
</svg>
