<?xml version="1.0" encoding="UTF-8" standalone="no"?>
<!DOCTYPE svg PUBLIC "-//W3C//DTD SVG 1.1//EN"
 "http://www.w3.org/Graphics/SVG/1.1/DTD/svg11.dtd">
<!-- Generated by graphviz version 9.0.0 (20231125.0833)
 -->
<!-- Title: snakemake_dag Pages: 1 -->
<svg width="826pt" height="997pt"
 viewBox="0.00 0.00 826.00 997.00" xmlns="http://www.w3.org/2000/svg" xmlns:xlink="http://www.w3.org/1999/xlink">
<g id="graph0" class="graph" transform="scale(1 1) rotate(0) translate(4 993)">
<title>snakemake_dag</title>
<polygon fill="white" stroke="none" points="-4,4 -4,-993 822,-993 822,4 -4,4"/>
<!-- 0 -->
<g id="node1" class="node">
<title>0</title>
<text text-anchor="start" x="300.12" y="-154.4" font-family="sans" font-weight="bold" font-size="18.00">dataset_cnv</text>
<text text-anchor="start" x="188" y="-125.7" font-family="sans" font-size="10.00"> </text>
<text text-anchor="start" x="190.25" y="-125.7" font-family="sans" font-weight="bold" font-size="14.00">↪ input</text>
<text text-anchor="start" x="243.5" y="-125.7" font-family="sans" font-size="10.00"> </text>
<text text-anchor="start" x="188" y="-102" font-family="monospace" font-size="10.00">results/samples/cnv/SRS8318899/copy_number_variants.tsv</text>
<text text-anchor="start" x="188" y="-80.75" font-family="monospace" font-size="10.00">results/samples/cnv/SRS8318900/copy_number_variants.tsv</text>
<text text-anchor="start" x="188" y="-59.5" font-family="monospace" font-size="10.00">results/samples/cnv/SRS8318901/copy_number_variants.tsv</text>
<text text-anchor="start" x="449.75" y="-35.45" font-family="sans" font-size="10.00"> </text>
<text text-anchor="start" x="452" y="-35.45" font-family="sans" font-weight="bold" font-size="14.00">output →</text>
<text text-anchor="start" x="515.75" y="-35.45" font-family="sans" font-size="10.00"> </text>
<text text-anchor="start" x="188" y="-11.75" font-family="monospace" font-size="10.00">results/dataset/copy_number_variants_dataset.tsv</text>
<polygon fill="#c6d957" stroke="#c6d957" points="182,-142 182,-142 525,-142 525,-142 182,-142"/>
<polygon fill="#c6d957" stroke="#c6d957" points="182,-51.75 182,-51.75 525,-51.75 525,-51.75 182,-51.75"/>
<polygon fill="none" stroke="#c6d957" stroke-width="2" points="182,-1 182,-176.5 524,-176.5 524,-1 182,-1"/>
</g>
<!-- 1 -->
<g id="node2" class="node">
<title>1</title>
<text text-anchor="start" x="304.25" y="-367.9" font-family="sans" font-weight="bold" font-size="18.00">cnv_calling</text>
<text text-anchor="start" x="194" y="-339.2" font-family="sans" font-size="10.00"> </text>
<text text-anchor="start" x="196.25" y="-339.2" font-family="sans" font-weight="bold" font-size="14.00">↪ input</text>
<text text-anchor="start" x="249.5" y="-339.2" font-family="sans" font-size="10.00"> </text>
<text text-anchor="start" x="194" y="-315.5" font-family="monospace" font-size="10.00">&lt;function cnv_calling_input at 0x7f0020e83e20&gt;</text>
<text text-anchor="start" x="443.75" y="-291.45" font-family="sans" font-size="10.00"> </text>
<text text-anchor="start" x="446" y="-291.45" font-family="sans" font-weight="bold" font-size="14.00">output →</text>
<text text-anchor="start" x="509.75" y="-291.45" font-family="sans" font-size="10.00"> </text>
<text text-anchor="start" x="194" y="-267.75" font-family="monospace" font-size="10.00">results/samples/cnv/{sample}/chromosome_depth.tsv</text>
<text text-anchor="start" x="194" y="-246.5" font-family="monospace" font-size="10.00">results/samples/cnv/{sample}/copy_number_variants.tsv</text>
<text text-anchor="start" x="194" y="-225.25" font-family="monospace" font-size="10.00">results/samples/cnv/{sample}/window_depth.tsv</text>
<polygon fill="#7cd957" stroke="#7cd957" points="188,-355.5 188,-355.5 519,-355.5 519,-355.5 188,-355.5"/>
<polygon fill="#7cd957" stroke="#7cd957" points="188,-307.75 188,-307.75 519,-307.75 519,-307.75 188,-307.75"/>
<polygon fill="none" stroke="#7cd957" stroke-width="2" points="188,-214.5 188,-390 518,-390 518,-214.5 188,-214.5"/>
</g>
<!-- 1&#45;&gt;0 -->
<g id="edge1" class="edge">
<title>1&#45;&gt;0</title>
<path fill="none" stroke="grey" stroke-width="2" d="M353,-213.7C353,-205.89 353,-197.94 353,-190.03"/>
<polygon fill="grey" stroke="grey" stroke-width="2" points="356.5,-190.26 353,-180.26 349.5,-190.26 356.5,-190.26"/>
</g>
<!-- 2 -->
<g id="node3" class="node">
<title>2</title>
<text text-anchor="start" x="123.62" y="-581.4" font-family="sans" font-weight="bold" font-size="18.00">mosdepth</text>
<text text-anchor="start" x="7" y="-552.7" font-family="sans" font-size="10.00"> </text>
<text text-anchor="start" x="9.25" y="-552.7" font-family="sans" font-weight="bold" font-size="14.00">↪ input</text>
<text text-anchor="start" x="62.5" y="-552.7" font-family="sans" font-size="10.00"> </text>
<text text-anchor="start" x="7" y="-529" font-family="monospace" font-size="10.00">data/samples/{sample}.bam</text>
<text text-anchor="start" x="7" y="-507.75" font-family="monospace" font-size="10.00">data/samples/{sample}.bam.bai</text>
<text text-anchor="start" x="262.75" y="-483.7" font-family="sans" font-size="10.00"> </text>
<text text-anchor="start" x="265" y="-483.7" font-family="sans" font-weight="bold" font-size="14.00">output →</text>
<text text-anchor="start" x="328.75" y="-483.7" font-family="sans" font-size="10.00"> </text>
<text text-anchor="start" x="7" y="-460" font-family="monospace" font-size="10.00">results/samples/mosdepth/{sample}/depth.regions.bed.gz</text>
<polygon fill="#57a1d9" stroke="#57a1d9" points="1,-569 1,-569 338,-569 338,-569 1,-569"/>
<polygon fill="#57a1d9" stroke="#57a1d9" points="1,-500 1,-500 338,-500 338,-500 1,-500"/>
<polygon fill="none" stroke="#57a1d9" stroke-width="2" points="1,-449.25 1,-603.5 337,-603.5 337,-449.25 1,-449.25"/>
</g>
<!-- 2&#45;&gt;1 -->
<g id="edge3" class="edge">
<title>2&#45;&gt;1</title>
<path fill="none" stroke="grey" stroke-width="2" d="M232.84,-448.31C245.56,-432.95 259.08,-416.64 272.28,-400.7"/>
<polygon fill="grey" stroke="grey" stroke-width="2" points="274.83,-403.1 278.52,-393.17 269.44,-398.63 274.83,-403.1"/>
</g>
<!-- 3 -->
<g id="node4" class="node">
<title>3</title>
<text text-anchor="start" x="470.62" y="-602.65" font-family="sans" font-weight="bold" font-size="18.00">repeat_masker</text>
<text text-anchor="start" x="363" y="-573.95" font-family="sans" font-size="10.00"> </text>
<text text-anchor="start" x="365.25" y="-573.95" font-family="sans" font-weight="bold" font-size="14.00">↪ input</text>
<text text-anchor="start" x="418.5" y="-573.95" font-family="sans" font-size="10.00"> </text>
<text text-anchor="start" x="363" y="-550.25" font-family="monospace" font-size="10.00">config/RepBase.fasta</text>
<text text-anchor="start" x="363" y="-529" font-family="monospace" font-size="10.00">results/references/{lineage}/repeats/{lineage}_known.fa</text>
<text text-anchor="start" x="363" y="-507.75" font-family="monospace" font-size="10.00">results/references/{lineage}/repeats/{lineage}_unknown.fa</text>
<text text-anchor="start" x="363" y="-486.5" font-family="monospace" font-size="10.00">results/references/{lineage}/{lineage}.fasta</text>
<text text-anchor="start" x="642.75" y="-462.45" font-family="sans" font-size="10.00"> </text>
<text text-anchor="start" x="645" y="-462.45" font-family="sans" font-weight="bold" font-size="14.00">output →</text>
<text text-anchor="start" x="708.75" y="-462.45" font-family="sans" font-size="10.00"> </text>
<text text-anchor="start" x="363" y="-438.75" font-family="monospace" font-size="10.00">results/references/{lineage}/repeats/{lineage}_repeats.bed</text>
<polygon fill="#57d97c" stroke="#57d97c" points="357,-590.25 357,-590.25 718,-590.25 718,-590.25 357,-590.25"/>
<polygon fill="#57d97c" stroke="#57d97c" points="357,-478.75 357,-478.75 718,-478.75 718,-478.75 357,-478.75"/>
<polygon fill="none" stroke="#57d97c" stroke-width="2" points="357,-428 357,-624.75 717,-624.75 717,-428 357,-428"/>
</g>
<!-- 3&#45;&gt;1 -->
<g id="edge2" class="edge">
<title>3&#45;&gt;1</title>
<path fill="none" stroke="grey" stroke-width="2" d="M455.76,-427.3C448.48,-418.52 441.12,-409.63 433.85,-400.85"/>
<polygon fill="grey" stroke="grey" stroke-width="2" points="436.69,-398.8 427.62,-393.33 431.3,-403.26 436.69,-398.8"/>
</g>
<!-- 4 -->
<g id="node5" class="node">
<title>4</title>
<text text-anchor="start" x="515.62" y="-965.9" font-family="sans" font-weight="bold" font-size="18.00">links</text>
<text text-anchor="start" x="405" y="-937.2" font-family="sans" font-size="10.00"> </text>
<text text-anchor="start" x="407.25" y="-937.2" font-family="sans" font-weight="bold" font-size="14.00">↪ input</text>
<text text-anchor="start" x="460.5" y="-937.2" font-family="sans" font-size="10.00"> </text>
<text text-anchor="start" x="405" y="-913.5" font-family="monospace" font-size="10.00">data/references/{lineage}.fasta</text>
<text text-anchor="start" x="600.75" y="-889.45" font-family="sans" font-size="10.00"> </text>
<text text-anchor="start" x="603" y="-889.45" font-family="sans" font-weight="bold" font-size="14.00">output →</text>
<text text-anchor="start" x="666.75" y="-889.45" font-family="sans" font-size="10.00"> </text>
<text text-anchor="start" x="405" y="-865.75" font-family="monospace" font-size="10.00">results/references/{lineage}/{lineage}.fasta</text>
<polygon fill="#d95757" stroke="#d95757" points="399,-953.5 399,-953.5 676,-953.5 676,-953.5 399,-953.5"/>
<polygon fill="#d95757" stroke="#d95757" points="399,-905.75 399,-905.75 676,-905.75 676,-905.75 399,-905.75"/>
<polygon fill="none" stroke="#d95757" stroke-width="2" points="399,-855 399,-988 675,-988 675,-855 399,-855"/>
</g>
<!-- 4&#45;&gt;3 -->
<g id="edge5" class="edge">
<title>4&#45;&gt;3</title>
<path fill="none" stroke="grey" stroke-width="2" d="M472.24,-854.24C464.38,-842.91 457.53,-830.67 453,-818 429.63,-752.61 433.85,-728.5 453,-661.75 455.34,-653.58 458.35,-645.42 461.81,-637.39"/>
<polygon fill="grey" stroke="grey" stroke-width="2" points="464.91,-639.03 465.94,-628.48 458.56,-636.09 464.91,-639.03"/>
</g>
<!-- 5 -->
<g id="node6" class="node">
<title>5</title>
<text text-anchor="start" x="569.88" y="-794.9" font-family="sans" font-weight="bold" font-size="18.00">repeat_modeler</text>
<text text-anchor="start" x="469" y="-766.2" font-family="sans" font-size="10.00"> </text>
<text text-anchor="start" x="471.25" y="-766.2" font-family="sans" font-weight="bold" font-size="14.00">↪ input</text>
<text text-anchor="start" x="524.5" y="-766.2" font-family="sans" font-size="10.00"> </text>
<text text-anchor="start" x="469" y="-742.5" font-family="monospace" font-size="10.00">results/references/{lineage}/{lineage}.fasta</text>
<text text-anchor="start" x="742.75" y="-718.45" font-family="sans" font-size="10.00"> </text>
<text text-anchor="start" x="745" y="-718.45" font-family="sans" font-weight="bold" font-size="14.00">output →</text>
<text text-anchor="start" x="808.75" y="-718.45" font-family="sans" font-size="10.00"> </text>
<text text-anchor="start" x="469" y="-694.75" font-family="monospace" font-size="10.00">results/references/{lineage}/repeats/{lineage}_known.fa</text>
<text text-anchor="start" x="469" y="-673.5" font-family="monospace" font-size="10.00">results/references/{lineage}/repeats/{lineage}_unknown.fa</text>
<polygon fill="#57d9c6" stroke="#57d9c6" points="463,-782.5 463,-782.5 818,-782.5 818,-782.5 463,-782.5"/>
<polygon fill="#57d9c6" stroke="#57d9c6" points="463,-734.75 463,-734.75 818,-734.75 818,-734.75 463,-734.75"/>
<polygon fill="none" stroke="#57d9c6" stroke-width="2" points="463,-662.75 463,-817 817,-817 817,-662.75 463,-662.75"/>
</g>
<!-- 4&#45;&gt;5 -->
<g id="edge6" class="edge">
<title>4&#45;&gt;5</title>
<path fill="none" stroke="grey" stroke-width="2" d="M575.06,-854.12C579.76,-845.92 584.63,-837.45 589.48,-828.99"/>
<polygon fill="grey" stroke="grey" stroke-width="2" points="592.39,-830.94 594.33,-820.53 586.32,-827.46 592.39,-830.94"/>
</g>
<!-- 5&#45;&gt;3 -->
<g id="edge4" class="edge">
<title>5&#45;&gt;3</title>
<path fill="none" stroke="grey" stroke-width="2" d="M602.52,-661.92C598.57,-653.8 594.49,-645.43 590.4,-637.04"/>
<polygon fill="grey" stroke="grey" stroke-width="2" points="593.68,-635.76 586.15,-628.31 587.38,-638.83 593.68,-635.76"/>
</g>
</g>
</svg>
